<?xml version="1.0" encoding="UTF-8" standalone="no"?>
<!-- Created with Inkscape (http://www.inkscape.org/) -->

<svg
   width="112.51mm"
   height="15.1mm"
   viewBox="0 0 112.51 15.1"
   version="1.1"
   id="svg5"
   inkscape:version="1.1.2 (b8e25be8, 2022-02-05)"
   sodipodi:docname="drawing.svg"
   xmlns:inkscape="http://www.inkscape.org/namespaces/inkscape"
   xmlns:sodipodi="http://sodipodi.sourceforge.net/DTD/sodipodi-0.dtd"
   xmlns="http://www.w3.org/2000/svg"
   xmlns:svg="http://www.w3.org/2000/svg">
  <sodipodi:namedview
     id="namedview7"
     pagecolor="#ffffff"
     bordercolor="#666666"
     borderopacity="1.0"
     inkscape:pageshadow="2"
     inkscape:pageopacity="0.0"
     inkscape:pagecheckerboard="0"
     inkscape:document-units="mm"
     showgrid="false"
     inkscape:zoom="0.77771465"
     inkscape:cx="12.858186"
     inkscape:cy="367.74413"
     inkscape:window-width="1519"
     inkscape:window-height="916"
     inkscape:window-x="2888"
     inkscape:window-y="256"
     inkscape:window-maximized="0"
     inkscape:current-layer="layer1"
     height="15.1mm" />
  <defs
     id="defs2" />
  <g
     inkscape:label="Layer 1"
     inkscape:groupmode="layer"
     id="layer1">
    <g
       id="g67"
       transform="matrix(0.26458221,0,0,0.26458221,-55.125702,-71.207011)">
      <g
         id="mt">
        <path
           d="m 490.83,290.51 c 0.22,-0.23 0.34,-0.53 0.34,-0.88 v -6.8 c 0,-0.9 0.27,-1.64 0.81,-2.22 0.54,-0.58 1.23,-0.87 2.06,-0.87 0.8,0 1.46,0.25 1.95,0.74 0.5,0.49 0.75,1.24 0.75,2.26 v 6.9 c 0,0.35 0.11,0.65 0.35,0.88 0.23,0.23 0.53,0.35 0.88,0.35 0.37,0 0.67,-0.12 0.89,-0.35 0.22,-0.23 0.34,-0.53 0.34,-0.88 v -6.9 c 0,-1.11 -0.2,-2.05 -0.59,-2.83 -0.4,-0.78 -0.95,-1.37 -1.65,-1.77 -0.71,-0.4 -1.52,-0.6 -2.44,-0.6 -1.05,0 -1.98,0.23 -2.79,0.68 -0.59,0.33 -1.05,0.78 -1.45,1.28 -0.36,-0.56 -0.8,-1.03 -1.37,-1.36 -0.71,-0.4 -1.52,-0.6 -2.44,-0.6 -0.95,0 -1.79,0.23 -2.53,0.68 -0.32,0.19 -0.59,0.43 -0.85,0.69 0,-0.36 -0.11,-0.66 -0.34,-0.88 -0.22,-0.23 -0.52,-0.34 -0.89,-0.34 -0.35,0 -0.65,0.11 -0.88,0.34 -0.23,0.23 -0.35,0.52 -0.35,0.89 v 10.74 c 0,0.35 0.12,0.65 0.35,0.88 0.23,0.23 0.53,0.35 0.88,0.35 0.37,0 0.67,-0.12 0.89,-0.35 0.23,-0.23 0.34,-0.53 0.34,-0.88 v -6.8 c 0,-0.9 0.27,-1.64 0.82,-2.22 0.55,-0.58 1.24,-0.87 2.08,-0.87 0.8,0 1.46,0.25 1.95,0.74 0.5,0.49 0.75,1.24 0.75,2.26 v 6.9 c 0,0.35 0.12,0.65 0.35,0.88 0.23,0.23 0.53,0.35 0.88,0.35 0.39,-0.04 0.68,-0.16 0.91,-0.39 z"
           id="path9" />
        <path
           d="m 508.88,290.93 c 0.74,0 1.52,-0.14 2.33,-0.41 0.81,-0.27 1.49,-0.63 2.04,-1.06 0.27,-0.21 0.4,-0.46 0.39,-0.75 -0.02,-0.29 -0.16,-0.56 -0.43,-0.8 -0.21,-0.18 -0.45,-0.26 -0.74,-0.25 -0.28,0.01 -0.54,0.1 -0.78,0.28 -0.32,0.24 -0.74,0.45 -1.27,0.64 -0.52,0.19 -1.03,0.28 -1.53,0.28 -0.92,0 -1.73,-0.2 -2.44,-0.6 -0.71,-0.4 -1.26,-0.95 -1.66,-1.64 -0.27,-0.46 -0.41,-0.98 -0.5,-1.52 h 9.14 c 0.32,0 0.59,-0.1 0.8,-0.3 0.21,-0.2 0.31,-0.45 0.31,-0.76 0,-1.27 -0.24,-2.39 -0.71,-3.37 -0.47,-0.97 -1.16,-1.74 -2.06,-2.29 -0.9,-0.56 -1.98,-0.83 -3.23,-0.83 -1.27,0 -2.4,0.29 -3.38,0.86 -0.98,0.57 -1.75,1.36 -2.31,2.36 -0.55,1.01 -0.83,2.17 -0.83,3.49 0,1.3 0.29,2.46 0.88,3.46 0.59,1.01 1.4,1.79 2.44,2.36 1.01,0.57 2.2,0.85 3.54,0.85 z m -2.72,-10.71 c 0.65,-0.4 1.43,-0.6 2.35,-0.6 0.8,0 1.49,0.18 2.05,0.56 0.56,0.37 1,0.87 1.3,1.51 0.22,0.45 0.33,0.95 0.4,1.48 h -7.99 c 0.08,-0.46 0.2,-0.89 0.4,-1.29 0.35,-0.71 0.84,-1.26 1.49,-1.66 z"
           id="path11" />
        <path
           d="m 520.37,290.05 c 1,0.59 2.14,0.88 3.39,0.88 1.26,0 2.38,-0.29 3.38,-0.88 1,-0.59 1.79,-1.39 2.38,-2.4 0.59,-1.01 0.88,-2.16 0.88,-3.43 v -11 c 0,-0.37 -0.11,-0.67 -0.34,-0.89 -0.22,-0.23 -0.52,-0.34 -0.89,-0.34 -0.35,0 -0.65,0.11 -0.88,0.34 -0.23,0.23 -0.35,0.52 -0.35,0.89 v 6.51 c -0.55,-0.68 -1.22,-1.21 -2.03,-1.6 -0.8,-0.39 -1.68,-0.59 -2.63,-0.59 -1.17,0 -2.23,0.29 -3.16,0.88 -0.93,0.59 -1.67,1.38 -2.21,2.39 -0.54,1.01 -0.81,2.14 -0.81,3.41 0,1.27 0.29,2.41 0.88,3.43 0.59,1.01 1.39,1.81 2.39,2.4 z m -0.33,-8.14 c 0.38,-0.68 0.89,-1.21 1.54,-1.6 0.65,-0.39 1.38,-0.59 2.18,-0.59 0.82,0 1.55,0.2 2.2,0.59 0.64,0.39 1.15,0.93 1.52,1.6 0.37,0.68 0.55,1.45 0.55,2.32 0,0.85 -0.18,1.62 -0.55,2.32 -0.37,0.69 -0.88,1.23 -1.52,1.63 -0.64,0.39 -1.37,0.59 -2.2,0.59 -0.8,0 -1.53,-0.2 -2.18,-0.59 -0.65,-0.39 -1.17,-0.94 -1.54,-1.63 -0.38,-0.69 -0.57,-1.46 -0.57,-2.32 0,-0.88 0.19,-1.65 0.57,-2.32 z"
           id="path13" />
        <path
           d="m 535.01,275.49 c 0.43,0 0.81,-0.16 1.12,-0.47 0.31,-0.31 0.47,-0.69 0.47,-1.12 0,-0.43 -0.16,-0.81 -0.47,-1.12 -0.31,-0.31 -0.69,-0.47 -1.12,-0.47 -0.44,0 -0.81,0.16 -1.12,0.47 -0.31,0.31 -0.47,0.69 -0.47,1.12 0,0.43 0.16,0.81 0.47,1.12 0.31,0.31 0.68,0.47 1.12,0.47 z"
           id="path15" />
        <path
           d="m 535.01,277.64 c -0.35,0 -0.65,0.11 -0.88,0.34 -0.23,0.23 -0.35,0.52 -0.35,0.89 v 10.74 c 0,0.35 0.12,0.65 0.35,0.88 0.23,0.23 0.53,0.35 0.88,0.35 0.37,0 0.67,-0.12 0.89,-0.35 0.23,-0.23 0.34,-0.53 0.34,-0.88 v -10.74 c 0,-0.37 -0.11,-0.67 -0.34,-0.89 -0.23,-0.23 -0.53,-0.34 -0.89,-0.34 z"
           id="path17" />
        <path
           d="m 542.16,290.05 c 1.01,0.59 2.15,0.88 3.44,0.88 1.74,0 3.19,-0.54 4.34,-1.62 0.23,-0.23 0.32,-0.48 0.29,-0.76 -0.03,-0.28 -0.18,-0.53 -0.46,-0.76 -0.21,-0.18 -0.45,-0.25 -0.72,-0.23 -0.27,0.02 -0.54,0.14 -0.8,0.35 -0.35,0.29 -0.74,0.5 -1.17,0.64 -0.43,0.14 -0.92,0.2 -1.49,0.2 -0.85,0 -1.6,-0.2 -2.24,-0.59 -0.64,-0.39 -1.15,-0.93 -1.51,-1.6 -0.36,-0.68 -0.54,-1.45 -0.54,-2.32 0,-0.92 0.18,-1.71 0.53,-2.39 0.35,-0.68 0.84,-1.2 1.47,-1.58 0.63,-0.38 1.35,-0.57 2.17,-0.57 1.17,0 2.16,0.42 2.94,1.26 0.22,0.23 0.47,0.37 0.75,0.42 0.28,0.05 0.52,0 0.75,-0.16 0.29,-0.21 0.47,-0.45 0.53,-0.72 0.06,-0.27 -0.02,-0.54 -0.24,-0.8 -0.63,-0.72 -1.33,-1.27 -2.12,-1.63 -0.79,-0.36 -1.66,-0.54 -2.61,-0.54 -1.27,0 -2.4,0.29 -3.38,0.86 -0.98,0.57 -1.75,1.36 -2.31,2.38 -0.56,1.01 -0.84,2.17 -0.84,3.47 0,1.27 0.28,2.41 0.86,3.41 0.57,1.02 1.35,1.81 2.36,2.4 z"
           id="path19" />
        <path
           d="m 564.02,290.51 c 0.23,0.23 0.53,0.35 0.88,0.35 0.35,0 0.65,-0.12 0.88,-0.35 0.23,-0.23 0.35,-0.53 0.35,-0.88 v -5.38 c 0,-1.27 -0.29,-2.41 -0.88,-3.43 -0.59,-1.01 -1.38,-1.81 -2.38,-2.4 -1,-0.59 -2.12,-0.88 -3.38,-0.88 -1.25,0 -2.38,0.29 -3.39,0.88 -1,0.59 -1.8,1.39 -2.39,2.4 -0.59,1.01 -0.88,2.16 -0.88,3.43 0,1.27 0.27,2.41 0.81,3.41 0.54,1 1.28,1.8 2.21,2.39 0.93,0.59 1.98,0.88 3.16,0.88 1.18,0 2.23,-0.29 3.16,-0.88 0.59,-0.37 1.07,-0.85 1.5,-1.38 v 0.96 c 0,0.35 0.11,0.65 0.35,0.88 z m -0.81,-3.96 c -0.37,0.68 -0.88,1.22 -1.52,1.62 -0.64,0.39 -1.37,0.59 -2.2,0.59 -0.8,0 -1.53,-0.2 -2.18,-0.59 -0.65,-0.39 -1.17,-0.93 -1.54,-1.62 -0.38,-0.68 -0.57,-1.45 -0.57,-2.3 0,-0.87 0.19,-1.64 0.57,-2.33 0.38,-0.68 0.89,-1.22 1.54,-1.62 0.65,-0.4 1.38,-0.59 2.18,-0.59 0.82,0 1.55,0.2 2.2,0.59 0.65,0.39 1.15,0.93 1.52,1.62 0.37,0.68 0.55,1.46 0.55,2.33 0,0.85 -0.18,1.62 -0.55,2.3 z"
           id="path21" />
        <path
           d="m 571.05,290.26 c 0.55,0.39 1.17,0.58 1.88,0.58 h 0.05 c 0.48,0 0.88,-0.11 1.18,-0.34 0.3,-0.23 0.46,-0.51 0.46,-0.87 0,-0.35 -0.1,-0.64 -0.3,-0.87 -0.2,-0.22 -0.46,-0.34 -0.78,-0.34 h -0.6 c -0.35,0 -0.64,-0.19 -0.87,-0.58 -0.22,-0.39 -0.34,-0.88 -0.34,-1.47 V 273.2 c 0,-0.35 -0.11,-0.64 -0.34,-0.87 -0.23,-0.23 -0.51,-0.34 -0.87,-0.34 -0.36,0 -0.64,0.11 -0.87,0.34 -0.22,0.23 -0.34,0.51 -0.34,0.87 v 13.17 c 0,0.87 0.15,1.64 0.46,2.3 0.31,0.66 0.73,1.2 1.28,1.59 z"
           id="path23" />
        <path
           d="m 485.72,314.29 h -0.82 c -0.51,0 -0.95,-0.22 -1.3,-0.65 -0.35,-0.43 -0.53,-0.97 -0.53,-1.62 v -5.96 h 2.05 c 0.34,0 0.61,-0.1 0.82,-0.29 0.21,-0.19 0.31,-0.44 0.31,-0.72 0,-0.32 -0.11,-0.58 -0.31,-0.77 -0.21,-0.19 -0.48,-0.29 -0.82,-0.29 h -2.05 v -3.47 c 0,-0.35 -0.11,-0.64 -0.34,-0.87 -0.22,-0.22 -0.51,-0.34 -0.87,-0.34 -0.35,0 -0.64,0.11 -0.87,0.34 -0.23,0.23 -0.34,0.52 -0.34,0.87 v 3.47 h -1.11 c -0.34,0 -0.61,0.1 -0.82,0.29 -0.21,0.19 -0.31,0.45 -0.31,0.77 0,0.29 0.1,0.53 0.31,0.72 0.21,0.19 0.48,0.29 0.82,0.29 h 1.11 v 5.96 c 0,0.88 0.18,1.68 0.56,2.39 0.37,0.71 0.88,1.27 1.52,1.68 0.64,0.41 1.37,0.61 2.17,0.61 h 0.44 c 0.42,0 0.76,-0.11 1.03,-0.34 0.26,-0.23 0.4,-0.51 0.4,-0.87 0,-0.36 -0.1,-0.64 -0.3,-0.87 -0.21,-0.22 -0.46,-0.33 -0.75,-0.33 z"
           id="path25" />
        <path
           d="m 498.85,304.24 c -0.9,-0.56 -1.98,-0.83 -3.23,-0.83 -1.27,0 -2.4,0.29 -3.38,0.86 -0.98,0.57 -1.75,1.36 -2.31,2.36 -0.55,1 -0.83,2.17 -0.83,3.49 0,1.3 0.29,2.46 0.88,3.46 0.59,1.01 1.4,1.79 2.44,2.37 1.04,0.57 2.22,0.86 3.56,0.86 0.74,0 1.52,-0.14 2.33,-0.41 0.81,-0.27 1.49,-0.63 2.04,-1.06 0.27,-0.21 0.4,-0.46 0.39,-0.75 -0.02,-0.29 -0.16,-0.56 -0.43,-0.8 -0.21,-0.18 -0.45,-0.26 -0.74,-0.25 -0.28,0.01 -0.54,0.1 -0.78,0.28 -0.32,0.24 -0.74,0.45 -1.27,0.64 -0.52,0.18 -1.03,0.28 -1.53,0.28 -0.92,0 -1.73,-0.2 -2.44,-0.6 -0.71,-0.4 -1.26,-0.95 -1.66,-1.64 -0.27,-0.46 -0.41,-0.98 -0.5,-1.52 h 9.14 c 0.32,0 0.59,-0.1 0.8,-0.3 0.21,-0.2 0.31,-0.45 0.31,-0.76 0,-1.27 -0.24,-2.39 -0.71,-3.36 -0.5,-1 -1.18,-1.77 -2.08,-2.32 z m -5.59,1.84 c 0.65,-0.4 1.43,-0.6 2.35,-0.6 0.8,0 1.49,0.18 2.05,0.55 0.56,0.37 1,0.87 1.3,1.51 0.22,0.45 0.33,0.95 0.4,1.49 h -7.99 c 0.08,-0.46 0.2,-0.89 0.4,-1.29 0.35,-0.7 0.84,-1.26 1.49,-1.66 z"
           id="path27" />
        <path
           d="m 513.35,303.95 c -0.79,-0.36 -1.66,-0.54 -2.61,-0.54 -1.27,0 -2.4,0.29 -3.38,0.86 -0.98,0.57 -1.75,1.36 -2.31,2.38 -0.56,1.01 -0.84,2.17 -0.84,3.48 0,1.27 0.28,2.41 0.86,3.41 0.57,1 1.36,1.8 2.36,2.39 1.01,0.59 2.15,0.88 3.44,0.88 1.74,0 3.19,-0.54 4.34,-1.62 0.23,-0.23 0.32,-0.48 0.29,-0.76 -0.03,-0.28 -0.18,-0.53 -0.46,-0.76 -0.21,-0.18 -0.45,-0.25 -0.72,-0.23 -0.27,0.02 -0.54,0.14 -0.8,0.35 -0.35,0.29 -0.74,0.5 -1.17,0.64 -0.43,0.14 -0.92,0.21 -1.49,0.21 -0.85,0 -1.6,-0.2 -2.24,-0.59 -0.64,-0.39 -1.15,-0.93 -1.51,-1.61 -0.36,-0.67 -0.54,-1.45 -0.54,-2.31 0,-0.92 0.18,-1.71 0.53,-2.39 0.35,-0.67 0.84,-1.2 1.47,-1.58 0.63,-0.38 1.35,-0.57 2.17,-0.57 1.17,0 2.16,0.42 2.94,1.26 0.22,0.22 0.48,0.37 0.75,0.42 0.27,0.06 0.52,0 0.75,-0.16 0.29,-0.21 0.47,-0.45 0.53,-0.72 0.06,-0.27 -0.02,-0.54 -0.24,-0.8 -0.63,-0.74 -1.34,-1.28 -2.12,-1.64 z"
           id="path29" />
        <path
           d="m 527.71,304.09 c -0.88,-0.47 -1.87,-0.71 -2.98,-0.71 -1.06,0 -2.02,0.23 -2.87,0.7 -0.47,0.26 -0.87,0.57 -1.23,0.93 v -0.28 -5.65 c 0,-0.37 -0.11,-0.67 -0.34,-0.89 -0.22,-0.22 -0.52,-0.34 -0.89,-0.34 -0.35,0 -0.65,0.11 -0.88,0.34 -0.23,0.23 -0.35,0.52 -0.35,0.89 v 5.65 5.94 4.83 c 0,0.35 0.12,0.65 0.35,0.88 0.23,0.23 0.53,0.35 0.88,0.35 0.37,0 0.67,-0.12 0.89,-0.35 0.23,-0.23 0.34,-0.53 0.34,-0.88 v -4.83 -1.98 c 0,-0.59 0.16,-1.12 0.48,-1.58 0.32,-0.46 0.76,-0.82 1.3,-1.1 0.54,-0.28 1.16,-0.41 1.83,-0.41 0.74,0 1.39,0.14 1.97,0.42 0.57,0.28 1.03,0.71 1.36,1.29 0.33,0.58 0.51,1.33 0.51,2.24 v 5.94 c 0,0.35 0.12,0.65 0.35,0.88 0.23,0.23 0.53,0.35 0.88,0.35 0.35,0 0.65,-0.12 0.88,-0.35 0.23,-0.23 0.35,-0.53 0.35,-0.88 v -5.94 c 0,-1.33 -0.25,-2.46 -0.76,-3.38 -0.5,-0.91 -1.19,-1.6 -2.07,-2.08 z"
           id="path31" />
        <path
           d="m 542.87,304.09 c -0.88,-0.47 -1.87,-0.71 -2.98,-0.71 -1.06,0 -2.02,0.23 -2.87,0.7 -0.47,0.26 -0.87,0.57 -1.23,0.93 v -0.28 c 0,-0.37 -0.11,-0.67 -0.34,-0.89 -0.22,-0.23 -0.52,-0.34 -0.89,-0.34 -0.35,0 -0.65,0.11 -0.88,0.34 -0.23,0.22 -0.35,0.52 -0.35,0.89 v 10.76 c 0,0.35 0.12,0.65 0.35,0.88 0.23,0.23 0.53,0.35 0.88,0.35 0.37,0 0.67,-0.12 0.89,-0.35 0.23,-0.23 0.34,-0.53 0.34,-0.88 v -6.8 c 0,-0.59 0.16,-1.12 0.48,-1.58 0.32,-0.46 0.76,-0.82 1.3,-1.1 0.54,-0.28 1.16,-0.41 1.83,-0.41 0.74,0 1.39,0.14 1.97,0.42 0.57,0.28 1.03,0.71 1.36,1.29 0.33,0.58 0.51,1.33 0.51,2.24 v 5.94 c 0,0.35 0.12,0.65 0.35,0.88 0.23,0.23 0.53,0.35 0.88,0.35 0.35,0 0.65,-0.12 0.88,-0.35 0.23,-0.23 0.35,-0.53 0.35,-0.88 v -5.94 c 0,-1.33 -0.25,-2.46 -0.76,-3.38 -0.51,-0.91 -1.2,-1.6 -2.07,-2.08 z"
           id="path33" />
        <path
           d="m 557.98,304.26 c -1,-0.57 -2.14,-0.86 -3.43,-0.86 -1.3,0 -2.45,0.29 -3.45,0.86 -1,0.57 -1.78,1.36 -2.35,2.36 -0.57,1 -0.86,2.17 -0.86,3.49 0,1.3 0.28,2.46 0.86,3.46 0.57,1.01 1.36,1.79 2.35,2.37 0.99,0.58 2.15,0.86 3.45,0.86 1.3,0 2.45,-0.28 3.45,-0.86 1,-0.58 1.78,-1.36 2.34,-2.37 0.56,-1 0.84,-2.16 0.84,-3.46 0,-1.32 -0.28,-2.48 -0.86,-3.49 -0.56,-1 -1.34,-1.79 -2.34,-2.36 z m 0.3,8.19 c -0.36,0.68 -0.87,1.21 -1.51,1.59 -0.64,0.38 -1.38,0.58 -2.22,0.58 -0.84,0 -1.58,-0.19 -2.22,-0.58 -0.64,-0.39 -1.15,-0.92 -1.52,-1.59 -0.37,-0.67 -0.55,-1.46 -0.55,-2.34 0,-0.89 0.18,-1.67 0.55,-2.35 0.37,-0.68 0.88,-1.22 1.52,-1.61 0.64,-0.38 1.38,-0.58 2.22,-0.58 0.84,0 1.58,0.19 2.22,0.58 0.64,0.39 1.15,0.92 1.51,1.61 0.36,0.68 0.54,1.47 0.54,2.35 0.01,0.89 -0.18,1.67 -0.54,2.34 z"
           id="path35" />
        <path
           d="m 567.99,314.29 h -0.6 c -0.35,0 -0.64,-0.19 -0.87,-0.58 -0.22,-0.39 -0.34,-0.88 -0.34,-1.47 v -13.17 c 0,-0.35 -0.11,-0.64 -0.34,-0.87 -0.23,-0.22 -0.51,-0.34 -0.87,-0.34 -0.36,0 -0.64,0.11 -0.87,0.34 -0.22,0.23 -0.34,0.52 -0.34,0.87 v 13.17 c 0,0.87 0.15,1.64 0.46,2.3 0.31,0.67 0.73,1.2 1.28,1.58 0.55,0.39 1.17,0.58 1.88,0.58 h 0.05 c 0.48,0 0.88,-0.11 1.18,-0.34 0.31,-0.23 0.46,-0.51 0.46,-0.87 0,-0.36 -0.1,-0.64 -0.3,-0.87 -0.19,-0.22 -0.45,-0.33 -0.78,-0.33 z"
           id="path37" />
        <path
           d="m 580.18,304.26 c -1,-0.57 -2.14,-0.86 -3.43,-0.86 -1.3,0 -2.45,0.29 -3.45,0.86 -1,0.57 -1.78,1.36 -2.35,2.36 -0.57,1 -0.86,2.17 -0.86,3.49 0,1.3 0.28,2.46 0.86,3.46 0.57,1.01 1.36,1.79 2.35,2.37 0.99,0.58 2.15,0.86 3.45,0.86 1.3,0 2.45,-0.28 3.45,-0.86 1,-0.58 1.78,-1.36 2.34,-2.37 0.56,-1 0.84,-2.16 0.84,-3.46 0,-1.32 -0.28,-2.48 -0.86,-3.49 -0.56,-1 -1.35,-1.79 -2.34,-2.36 z m 0.3,8.19 c -0.36,0.68 -0.87,1.21 -1.51,1.59 -0.64,0.38 -1.38,0.58 -2.22,0.58 -0.84,0 -1.58,-0.19 -2.22,-0.58 -0.64,-0.39 -1.15,-0.92 -1.52,-1.59 -0.37,-0.67 -0.55,-1.46 -0.55,-2.34 0,-0.89 0.18,-1.67 0.55,-2.35 0.37,-0.68 0.88,-1.22 1.52,-1.61 0.64,-0.38 1.38,-0.58 2.22,-0.58 0.84,0 1.58,0.19 2.22,0.58 0.64,0.39 1.15,0.92 1.51,1.61 0.36,0.68 0.54,1.47 0.54,2.35 0,0.89 -0.18,1.67 -0.54,2.34 z"
           id="path39" />
        <path
           d="m 595.86,304.26 c -1,-0.57 -2.14,-0.86 -3.43,-0.86 -1.3,0 -2.45,0.29 -3.45,0.86 -1,0.57 -1.78,1.36 -2.35,2.36 -0.57,1 -0.86,2.17 -0.86,3.49 0,1.3 0.26,2.46 0.8,3.46 0.53,1.01 1.26,1.79 2.18,2.37 0.93,0.57 1.99,0.86 3.2,0.86 1.11,0 2.09,-0.28 2.94,-0.86 0.75,-0.5 1.34,-1.21 1.81,-2.05 v 1.26 c 0,1.05 -0.19,1.93 -0.58,2.65 -0.39,0.72 -0.9,1.27 -1.56,1.64 -0.65,0.37 -1.36,0.56 -2.14,0.56 -0.84,0 -1.58,-0.15 -2.24,-0.46 -0.66,-0.31 -1.21,-0.73 -1.64,-1.28 -0.19,-0.26 -0.45,-0.42 -0.76,-0.48 -0.31,-0.06 -0.61,0 -0.9,0.19 -0.26,0.18 -0.41,0.41 -0.47,0.7 -0.06,0.29 0.02,0.57 0.23,0.84 0.69,0.87 1.54,1.53 2.53,1.98 1,0.45 2.07,0.68 3.21,0.68 1.32,0 2.48,-0.31 3.49,-0.92 1.01,-0.61 1.79,-1.43 2.35,-2.47 0.56,-1.04 0.84,-2.19 0.84,-3.46 v -5.21 c 0,-1.32 -0.28,-2.48 -0.86,-3.49 -0.56,-1 -1.34,-1.79 -2.34,-2.36 z m -1.21,9.79 c -0.64,0.39 -1.38,0.58 -2.22,0.58 -0.84,0 -1.58,-0.19 -2.22,-0.58 -0.64,-0.39 -1.15,-0.92 -1.52,-1.59 -0.37,-0.67 -0.55,-1.46 -0.55,-2.34 0,-0.89 0.18,-1.67 0.55,-2.35 0.37,-0.68 0.88,-1.22 1.52,-1.61 0.64,-0.38 1.38,-0.58 2.22,-0.58 0.84,0 1.58,0.19 2.22,0.58 0.64,0.39 1.15,0.92 1.51,1.61 0.36,0.68 0.54,1.47 0.54,2.35 0,0.88 -0.18,1.66 -0.54,2.34 -0.36,0.67 -0.86,1.2 -1.51,1.59 z"
           id="path41" />
        <path
           d="m 603.36,303.5 c -0.35,0 -0.65,0.11 -0.88,0.34 -0.23,0.22 -0.35,0.52 -0.35,0.89 v 10.74 c 0,0.35 0.12,0.65 0.35,0.88 0.23,0.23 0.53,0.35 0.88,0.35 0.37,0 0.67,-0.12 0.89,-0.35 0.23,-0.23 0.34,-0.53 0.34,-0.88 v -10.74 c 0,-0.37 -0.11,-0.67 -0.34,-0.89 -0.22,-0.23 -0.52,-0.34 -0.89,-0.34 z"
           id="path43" />
        <path
           d="m 603.36,298.17 c -0.44,0 -0.81,0.16 -1.12,0.47 -0.31,0.31 -0.47,0.69 -0.47,1.12 0,0.44 0.16,0.81 0.47,1.12 0.31,0.31 0.69,0.47 1.12,0.47 0.43,0 0.81,-0.16 1.12,-0.47 0.31,-0.31 0.47,-0.69 0.47,-1.12 0,-0.43 -0.16,-0.81 -0.47,-1.12 -0.31,-0.31 -0.68,-0.47 -1.12,-0.47 z"
           id="path45" />
        <path
           d="m 617.65,304.24 c -0.9,-0.56 -1.98,-0.83 -3.23,-0.83 -1.27,0 -2.4,0.29 -3.38,0.86 -0.98,0.57 -1.75,1.36 -2.31,2.36 -0.55,1 -0.83,2.17 -0.83,3.49 0,1.3 0.29,2.46 0.88,3.46 0.59,1.01 1.4,1.79 2.44,2.37 1.04,0.57 2.22,0.86 3.56,0.86 0.74,0 1.52,-0.14 2.33,-0.41 0.81,-0.27 1.49,-0.63 2.04,-1.06 0.27,-0.21 0.4,-0.46 0.39,-0.75 -0.02,-0.29 -0.16,-0.56 -0.43,-0.8 -0.21,-0.18 -0.45,-0.26 -0.74,-0.25 -0.28,0.01 -0.54,0.1 -0.78,0.28 -0.32,0.24 -0.74,0.45 -1.27,0.64 -0.52,0.18 -1.03,0.28 -1.53,0.28 -0.92,0 -1.73,-0.2 -2.44,-0.6 -0.71,-0.4 -1.26,-0.95 -1.66,-1.64 -0.27,-0.46 -0.41,-0.98 -0.5,-1.52 h 9.14 c 0.32,0 0.59,-0.1 0.8,-0.3 0.21,-0.2 0.31,-0.45 0.31,-0.76 0,-1.27 -0.24,-2.39 -0.71,-3.36 -0.5,-1 -1.18,-1.77 -2.08,-2.32 z m -5.59,1.84 c 0.65,-0.4 1.43,-0.6 2.35,-0.6 0.8,0 1.49,0.18 2.05,0.55 0.56,0.37 1,0.87 1.3,1.51 0.22,0.45 0.33,0.95 0.4,1.49 h -7.99 c 0.08,-0.46 0.2,-0.89 0.4,-1.29 0.34,-0.7 0.84,-1.26 1.49,-1.66 z"
           id="path47" />
        <path
           d="m 633.09,311.14 c -0.31,-0.49 -0.81,-0.92 -1.51,-1.29 -0.7,-0.37 -1.65,-0.68 -2.86,-0.92 -0.87,-0.18 -1.53,-0.36 -1.98,-0.54 -0.45,-0.18 -0.75,-0.39 -0.9,-0.63 -0.15,-0.23 -0.23,-0.5 -0.23,-0.78 0,-0.47 0.24,-0.82 0.74,-1.06 0.49,-0.24 1.09,-0.36 1.8,-0.36 0.61,0 1.15,0.07 1.62,0.22 0.47,0.14 0.9,0.41 1.3,0.8 0.24,0.23 0.54,0.37 0.89,0.43 0.35,0.07 0.66,0.01 0.92,-0.17 0.26,-0.19 0.39,-0.43 0.41,-0.71 0.02,-0.28 -0.09,-0.55 -0.31,-0.81 -0.48,-0.59 -1.13,-1.06 -1.95,-1.4 -0.82,-0.34 -1.76,-0.51 -2.82,-0.51 -0.82,0 -1.61,0.13 -2.37,0.4 -0.76,0.27 -1.37,0.67 -1.86,1.21 -0.48,0.54 -0.72,1.22 -0.72,2.04 0,0.93 0.37,1.72 1.1,2.36 0.73,0.64 1.91,1.13 3.53,1.45 1.26,0.23 2.12,0.52 2.59,0.87 0.47,0.35 0.7,0.77 0.69,1.26 -0.02,0.48 -0.27,0.88 -0.76,1.18 -0.49,0.31 -1.2,0.46 -2.14,0.46 -0.74,0 -1.41,-0.13 -2.01,-0.4 -0.6,-0.27 -1.04,-0.55 -1.31,-0.86 -0.23,-0.24 -0.5,-0.38 -0.81,-0.42 -0.31,-0.04 -0.63,0.07 -0.95,0.32 -0.27,0.21 -0.43,0.48 -0.47,0.81 -0.04,0.33 0.06,0.62 0.3,0.88 0.53,0.53 1.27,0.97 2.23,1.32 0.96,0.35 2,0.52 3.12,0.52 1.14,0 2.1,-0.18 2.86,-0.53 0.76,-0.35 1.34,-0.83 1.74,-1.43 0.39,-0.59 0.59,-1.26 0.59,-2 -0.02,-0.65 -0.17,-1.22 -0.47,-1.71 z"
           id="path49" />
      </g>
      <g
         id="apoplex">
        <path
           d="m 312.29,277.5 c -10.87,0 -19.69,8.82 -19.69,19.69 0,10.87 8.82,19.69 19.69,19.69 10.87,0 19.69,-8.82 19.69,-19.69 0,-10.86 -8.82,-19.69 -19.69,-19.69 z m 0,30.7 c -6.07,0 -11,-4.93 -11,-11 0,-6.07 4.93,-11 11,-11 6.07,0 11.01,4.93 11.01,11 -0.01,6.07 -4.94,11 -11.01,11 z"
           id="path52" />
        <path
           d="m 454.09,297.19 12.25,-12.25 c 1.69,-1.69 1.69,-4.44 0,-6.13 -1.69,-1.69 -4.44,-1.69 -6.13,0 l -12.25,12.25 -12.25,-12.25 c -1.69,-1.69 -4.44,-1.69 -6.13,0 -1.69,1.69 -1.69,4.44 0,6.13 l 12.25,12.25 -12.25,12.25 c -1.69,1.69 -1.69,4.44 0,6.13 1.69,1.69 4.44,1.69 6.13,0 l 12.25,-12.25 12.25,12.25 c 1.69,1.69 4.44,1.69 6.13,0 1.69,-1.69 1.69,-4.44 0,-6.13 z"
           id="path54" />
        <path
           d="m 380.85,269.13 c -2.4,0 -4.34,1.94 -4.34,4.34 v 38.89 c 0,2.4 1.94,4.34 4.34,4.34 2.4,0 4.34,-1.95 4.34,-4.34 v -38.89 c 0,-2.4 -1.94,-4.34 -4.34,-4.34 z"
           id="path56" />
        <path
           d="m 228.04,277.5 c -10.87,0 -19.69,8.82 -19.69,19.69 0,10.87 8.82,19.69 19.69,19.69 4.12,0 7.94,-1.27 11.11,-3.44 0.42,1.96 2.16,3.43 4.24,3.43 2.4,0 4.34,-1.95 4.34,-4.34 v -15.33 0 0 c 0,-10.87 -8.83,-19.7 -19.69,-19.7 z m 0,30.7 c -6.07,0 -11,-4.93 -11,-11 0,-6.07 4.93,-11 11,-11 6.07,0 11.01,4.93 11.01,11 -0.01,6.07 -4.94,11 -11.01,11 z"
           id="path58" />
        <path
           d="m 270.51,277.5 c -10.87,0 -19.69,8.82 -19.69,19.69 v 0 0 24.61 c 0,2.4 1.94,4.34 4.34,4.34 2.4,0 4.34,-1.95 4.34,-4.34 v -8.29 c 3.14,2.12 6.93,3.36 11.01,3.36 10.87,0 19.69,-8.82 19.69,-19.69 0,-10.85 -8.82,-19.68 -19.69,-19.68 z m 0,30.7 c -6.07,0 -11.01,-4.93 -11.01,-11 0,-6.07 4.93,-11 11.01,-11 6.07,0 11,4.93 11,11 0.01,6.07 -4.92,11 -11,11 z"
           id="path60" />
        <path
           d="m 353.98,277.5 c -10.87,0 -19.69,8.82 -19.69,19.69 v 0 0 24.61 c 0,2.4 1.94,4.34 4.34,4.34 2.4,0 4.34,-1.95 4.34,-4.34 v -8.29 c 3.14,2.12 6.93,3.36 11.01,3.36 10.87,0 19.69,-8.82 19.69,-19.69 0,-10.85 -8.82,-19.68 -19.69,-19.68 z m 0,30.7 c -6.07,0 -11.01,-4.93 -11.01,-11 0,-6.07 4.93,-11 11.01,-11 6.07,0 11,4.93 11,11 0.01,6.07 -4.93,11 -11,11 z"
           id="path62" />
        <path
           d="m 407.93,277.48 c -10.85,0 -19.68,8.83 -19.68,19.68 0,10.85 8.83,19.68 19.68,19.68 4.68,0 9.22,-1.67 12.78,-4.71 1.82,-1.56 2.04,-4.3 0.48,-6.12 -1.56,-1.82 -4.3,-2.04 -6.12,-0.48 -1.98,1.7 -4.52,2.63 -7.13,2.63 -4.52,0 -8.41,-2.74 -10.09,-6.65 h 25.41 c 0.01,0 0.01,0 0.02,0 2.4,0 4.34,-1.95 4.34,-4.34 -0.01,-10.86 -8.84,-19.69 -19.69,-19.69 z m -10.09,15.33 c 1.69,-3.91 5.57,-6.65 10.09,-6.65 4.52,0 8.41,2.74 10.09,6.65 z"
           id="path64" />
      </g>
    </g>
  </g>
</svg>
